<?xml version="1.0" standalone="no"?><!DOCTYPE svg PUBLIC "-//W3C//DTD SVG 1.1//EN" "http://www.w3.org/Graphics/SVG/1.1/DTD/svg11.dtd"><svg t="1564325681776" class="icon" viewBox="0 0 1024 1024" version="1.1" xmlns="http://www.w3.org/2000/svg" p-id="2003" xmlns:xlink="http://www.w3.org/1999/xlink" width="200" height="200"><defs><style type="text/css"></style></defs><path d="M512.157538 0.551385c281.206154 0 511.369846 230.242462 511.369847 511.448615 0 281.206154-230.163692 511.448615-511.369847 511.448615C230.793846 1023.448615 0.708923 793.206154 0.708923 512 0.787692 230.793846 230.872615 0.551385 512.157538 0.551385z m0 876.701538H512a73.255385 73.255385 0 0 0 73.176615-72.940308 73.255385 73.255385 0 0 0-73.097846-73.176615 73.255385 73.255385 0 0 0-73.176615 73.097846c0 40.172308 32.925538 73.019077 73.176615 73.019077z m94.916924-551.542154c0-3.623385 3.702154-11.027692 3.702153-11.027692 0-54.665846-43.874462-98.540308-98.619077-98.540308-54.823385 0-98.697846 43.795692-98.697846 98.619077 0 3.623385 3.702154 10.948923 3.702154 18.274462 0 0 54.744615 259.308308 62.070154 281.206154 3.623385 21.976615 14.651077 36.548923 32.846769 36.548923 18.274462 0 29.223385-10.948923 32.925539-32.84677 3.623385-21.976615 0 0 0 0s62.070154-288.610462 62.070154-292.233846c0 3.623385 0 0 0 0z" fill="#FF0000" p-id="2004"></path></svg>